<svg xmlns="http://www.w3.org/2000/svg" height="512" viewBox="-21 -21 682 682.667" width="512"><path d="M142.227 92.465c2.953-18.309-2.614-37.727-16.73-51.844l-23.11-23.11c-23.344-23.347-61.2-23.347-84.547 0-23.344 23.344-23.344 61.2 0 84.544l23.113 23.113c14.113 14.113 33.535 19.68 51.844 16.727l143.75 149.843 56.7-54.394zm0 0M556.215 624.965c18.957 19.758 50.445 20.082 69.805.722s19.035-50.847-.723-69.804L405.219 344.762l-58.907 61.398zm0 0M547.867 141.895a60.21 60.21 0 0 0 9.59.765c15.293 0 30.586-5.824 42.254-17.492l23.11-23.113c23.347-23.344 23.347-61.2 0-84.543C611.147 5.836 595.847 0 580.546 0c-15.297 0-30.602 5.836-42.27 17.512l-23.113 23.11c-14.113 14.116-19.68 33.534-16.727 51.843L15.367 555.883c-19.758 18.957-20.086 50.445-.722 69.804C24.187 635.239 36.695 640 49.184 640c12.836 0 25.66-5.02 35.265-15.035zm0 0" fill="#393939"/></svg>